<svg xmlns="http://www.w3.org/2000/svg" width="25.802" height="25.796" viewBox="0 0 25.802 25.796">
  <path id="Icon_awesome-instagram" data-name="Icon awesome-instagram" d="M12.9,8.522a6.614,6.614,0,1,0,6.614,6.614A6.6,6.6,0,0,0,12.9,8.522Zm0,10.914a4.3,4.3,0,1,1,4.3-4.3,4.308,4.308,0,0,1-4.3,4.3ZM21.325,8.251a1.543,1.543,0,1,1-1.543-1.543A1.539,1.539,0,0,1,21.325,8.251Zm4.38,1.566a7.634,7.634,0,0,0-2.084-5.4,7.684,7.684,0,0,0-5.4-2.084c-2.13-.121-8.513-.121-10.643,0a7.673,7.673,0,0,0-5.4,2.078,7.659,7.659,0,0,0-2.084,5.4c-.121,2.13-.121,8.513,0,10.643a7.634,7.634,0,0,0,2.084,5.4,7.694,7.694,0,0,0,5.4,2.084c2.13.121,8.513.121,10.643,0a7.634,7.634,0,0,0,5.4-2.084,7.684,7.684,0,0,0,2.084-5.4c.121-2.13.121-8.508,0-10.637ZM22.954,22.74A4.353,4.353,0,0,1,20.5,25.192c-1.7.673-5.727.518-7.6.518s-5.912.15-7.6-.518A4.353,4.353,0,0,1,2.843,22.74c-.673-1.7-.518-5.727-.518-7.6s-.15-5.912.518-7.6A4.353,4.353,0,0,1,5.295,5.08c1.7-.673,5.727-.518,7.6-.518s5.912-.15,7.6.518a4.353,4.353,0,0,1,2.452,2.452c.673,1.7.518,5.727.518,7.6S23.628,21.047,22.954,22.74Z" transform="translate(0.005 -2.238)" fill="#ffe9e6"/>
</svg>
