<svg xmlns="http://www.w3.org/2000/svg" width="27.501" height="27.5" viewBox="0 0 27.501 27.5">
  <path id="Icon_awesome-linkedin-in" data-name="Icon awesome-linkedin-in" d="M6.156,27.5H.454V9.14h5.7ZM3.3,6.636A3.318,3.318,0,1,1,6.6,3.3,3.33,3.33,0,0,1,3.3,6.636ZM27.494,27.5H21.805V18.563c0-2.13-.043-4.862-2.964-4.862-2.964,0-3.419,2.314-3.419,4.708V27.5h-5.7V9.14H15.2v2.5h.08A5.991,5.991,0,0,1,20.67,8.68c5.77,0,6.831,3.8,6.831,8.735V27.5Z" transform="translate(0 -0.001)" fill="#fadcd9"/>
</svg>
