<svg xmlns="http://www.w3.org/2000/svg" width="28.465" height="23.119" viewBox="0 0 28.465 23.119">
  <path id="Icon_awesome-twitter" data-name="Icon awesome-twitter" d="M25.539,9.142c.018.253.018.506.018.759,0,7.712-5.87,16.6-16.6,16.6A16.486,16.486,0,0,1,0,23.88a12.068,12.068,0,0,0,1.409.072A11.683,11.683,0,0,0,8.651,21.46,5.844,5.844,0,0,1,3.2,17.414a7.357,7.357,0,0,0,1.1.09,6.17,6.17,0,0,0,1.535-.2,5.835,5.835,0,0,1-4.678-5.725v-.072a5.875,5.875,0,0,0,2.637.74,5.843,5.843,0,0,1-1.806-7.8,16.582,16.582,0,0,0,12.029,6.1,6.586,6.586,0,0,1-.144-1.337,5.839,5.839,0,0,1,10.1-3.992,11.486,11.486,0,0,0,3.7-1.409,5.818,5.818,0,0,1-2.565,3.215,11.7,11.7,0,0,0,3.359-.9,12.541,12.541,0,0,1-2.926,3.016Z" transform="translate(0 -3.381)" fill="#ffe9e6"/>
</svg>
