<svg xmlns="http://www.w3.org/2000/svg" xmlns:xlink="http://www.w3.org/1999/xlink" width="67.001" height="65.001" viewBox="0 0 67.001 65.001">
  <defs>
    <clipPath id="clip-path">
      <rect id="Rectangle_203" data-name="Rectangle 203" width="24" height="24" transform="translate(14.459 14.431)" fill="#fff"/>
    </clipPath>
  </defs>
  <g id="Group_241" data-name="Group 241" transform="translate(-0.459 -0.431)">
    <g id="Group_216" data-name="Group 216" transform="translate(13.417 11.628)">
      <rect id="Rectangle_192" data-name="Rectangle 192" width="54" height="54" rx="10" transform="translate(0.043 -0.197)" fill="#f8afa6"/>
    </g>
    <g id="Group_215" data-name="Group 215">
      <rect id="Rectangle_192-2" data-name="Rectangle 192" width="53" height="53" rx="10" transform="translate(0.459 0.431)" fill="#a74b56"/>
      <g id="Mask_Group_3" data-name="Mask Group 3" transform="translate(1 1)" clip-path="url(#clip-path)">
        <path id="apps_FILL0_wght700_GRAD0_opsz48" d="M7.51,32.152a2.711,2.711,0,1,1,0-5.423,2.711,2.711,0,1,1,0,5.423Zm9.3,0a2.735,2.735,0,0,1-1.933-4.642,2.579,2.579,0,0,1,1.907-.781,2.731,2.731,0,0,1,1.933,4.636,2.569,2.569,0,0,1-1.907.787Zm9.269,0a2.6,2.6,0,0,1-1.924-.787,2.726,2.726,0,0,1,3.854-3.854,2.714,2.714,0,0,1-1.93,4.642ZM7.51,22.845a2.648,2.648,0,0,1-1.93-.774,2.569,2.569,0,0,1-.787-1.907A2.688,2.688,0,0,1,7.51,17.458a2.628,2.628,0,0,1,1.924.774,2.579,2.579,0,0,1,.781,1.907A2.678,2.678,0,0,1,7.51,22.845Zm9.3,0a2.636,2.636,0,0,1-1.92-.774,2.569,2.569,0,0,1-.787-1.907,2.636,2.636,0,0,1,.774-1.92,2.569,2.569,0,0,1,1.907-.787,2.636,2.636,0,0,1,1.92.774,2.569,2.569,0,0,1,.787,1.907,2.636,2.636,0,0,1-.774,1.92,2.569,2.569,0,0,1-1.907.787Zm9.269,0a2.628,2.628,0,0,1-1.924-.774,2.579,2.579,0,0,1-.781-1.907,2.731,2.731,0,0,1,4.636-1.933,2.569,2.569,0,0,1,.787,1.907,2.688,2.688,0,0,1-2.717,2.707ZM7.51,13.574a2.635,2.635,0,0,1-1.93-.781,2.6,2.6,0,0,1-.787-1.924A2.688,2.688,0,0,1,7.51,8.152a2.6,2.6,0,0,1,1.924.787,2.635,2.635,0,0,1,.781,1.93A2.668,2.668,0,0,1,7.51,13.574Zm9.3,0A2.678,2.678,0,0,1,14.1,10.869a2.648,2.648,0,0,1,.774-1.93,2.569,2.569,0,0,1,1.907-.787,2.688,2.688,0,0,1,2.707,2.717,2.628,2.628,0,0,1-.774,1.924A2.579,2.579,0,0,1,16.806,13.574Zm9.269,0a2.668,2.668,0,0,1-2.705-2.705,2.635,2.635,0,0,1,.781-1.93,2.714,2.714,0,0,1,4.642,1.93,2.6,2.6,0,0,1-.787,1.924A2.635,2.635,0,0,1,26.076,13.574Z" transform="translate(9.666 6.279)" fill="#ffe9e6"/>
      </g>
    </g>
  </g>
</svg>
