<svg xmlns="http://www.w3.org/2000/svg" width="66.999" height="65" viewBox="0 0 66.999 65">
  <g id="Group_236" data-name="Group 236" transform="translate(0.18 -0.332)">
    <g id="Group_216" data-name="Group 216" transform="translate(13.417 11.628)">
      <rect id="Rectangle_192" data-name="Rectangle 192" width="53" height="54" rx="10" transform="translate(0.402 -0.296)" fill="#f8afa6"/>
    </g>
    <g id="Group_215" data-name="Group 215">
      <rect id="Rectangle_192-2" data-name="Rectangle 192" width="54" height="53" rx="10" transform="translate(-0.18 0.332)" fill="#a74b56"/>
      <path id="Icon_awesome-wordpress-simple" data-name="Icon awesome-wordpress-simple" d="M16.159.563a15.6,15.6,0,1,0,15.6,15.6A15.614,15.614,0,0,0,16.159.563ZM2.135,16.159a13.926,13.926,0,0,1,1.214-5.7L10.04,28.781A14.035,14.035,0,0,1,2.135,16.159ZM16.159,30.183a13.969,13.969,0,0,1-3.962-.572L16.4,17.385,20.712,29.2a1.9,1.9,0,0,0,.1.195A14.04,14.04,0,0,1,16.159,30.183Zm1.931-20.6c.843-.044,1.6-.132,1.6-.132A.58.58,0,0,0,19.605,8.3s-2.27.176-3.736.176c-1.377,0-3.692-.176-3.692-.176a.58.58,0,0,0-.088,1.157s.717.088,1.472.132l2.182,5.987-3.069,9.2L7.568,9.587c.843-.044,1.6-.132,1.6-.132A.58.58,0,0,0,9.084,8.3s-2.27.176-3.736.176c-.264,0-.572-.006-.906-.019A14.024,14.024,0,0,1,25.63,5.814a1.777,1.777,0,0,0-.182-.013A2.427,2.427,0,0,0,23.1,8.292a6.568,6.568,0,0,0,1.377,3.289,7.36,7.36,0,0,1,1.157,3.868,16.838,16.838,0,0,1-1.069,4.534l-1.4,4.673L18.09,9.587Zm5.119,18.69,4.283-12.383a13.264,13.264,0,0,0,1.069-5.025,10.321,10.321,0,0,0-.094-1.44,14.025,14.025,0,0,1-5.257,18.848Z" transform="translate(11.065 11.065)" fill="#ffe9e6"/>
    </g>
  </g>
</svg>
